<svg xmlns="http://www.w3.org/2000/svg" xmlns:xlink="http://www.w3.org/1999/xlink" width="600" zoomAndPan="magnify" viewBox="0 0 450 449.999984" height="600" preserveAspectRatio="xMidYMid meet" version="1.0"><path fill="#0097b2" d="M 43.164062 70.136719 C 58.988281 40.074219 95.558594 38.316406 126.238281 41.128906 C 160.523438 44.292969 178.191406 35.152344 207.117188 18.359375 C 230.585938 4.734375 252.300781 5.171875 277.179688 17.921875 C 307.246094 33.390625 301.089844 61.082031 325.441406 78.664062 C 348.035156 95.015625 382.144531 87.71875 406.144531 102.839844 C 430.230469 118.050781 436.734375 144.335938 435.417969 171.5 C 433.570312 208.507812 414.496094 243.144531 421.261719 280.683594 C 426.714844 310.921875 458.273438 341.957031 442.539062 373.867188 C 413.085938 433.558594 321.132812 383.535156 273.839844 392.238281 C 222.675781 401.734375 145.140625 458.4375 95.910156 408.0625 C 74.109375 385.824219 85.886719 350.394531 85.449219 323.230469 C 84.832031 285.429688 71.910156 274 45.539062 249.386719 C 20.132812 225.738281 0 213.957031 10.023438 178.179688 C 16 156.730469 45.1875 151.984375 50.636719 137.828125 C 57.230469 120.160156 34.109375 87.191406 43.164062 70.136719 Z M 43.164062 70.136719 " fill-opacity="1" fill-rule="nonzero"/></svg>