<svg xmlns="http://www.w3.org/2000/svg" xmlns:xlink="http://www.w3.org/1999/xlink" width="600" zoomAndPan="magnify" viewBox="0 0 450 449.999984" height="600" preserveAspectRatio="xMidYMid meet" version="1.0"><defs><clipPath id="8f77cd33e9"><path d="M 17.644531 30 L 434.644531 30 L 434.644531 430.214844 L 17.644531 430.214844 Z M 17.644531 30 " clip-rule="nonzero"/></clipPath><clipPath id="9863fdbb92"><path d="M 17.644531 24 L 434.644531 24 L 434.644531 425 L 17.644531 425 Z M 17.644531 24 " clip-rule="nonzero"/></clipPath></defs><g clip-path="url(#8f77cd33e9)"><path fill="#0cc0df" d="M 378.050781 41.414062 C 381.695312 37.285156 381.664062 39.03125 383.78125 33.605469 C 370.75 28.472656 364.824219 42.886719 357.175781 49.898438 C 352.15625 54.492188 349.773438 58.34375 343.328125 61.945312 C 337.773438 65.050781 338.710938 66.585938 333.152344 69.796875 C 322.027344 76.214844 315.097656 87.292969 301.511719 91.34375 C 303.773438 85.515625 306.582031 85.648438 312.035156 82.601562 C 309.828125 81.144531 312.933594 82.019531 309.738281 82.070312 L 303.292969 83.671875 C 308.570312 79.074219 310.292969 82.394531 311.019531 74.269531 L 301.597656 79.335938 C 299.726562 74.191406 300.339844 69.453125 301.09375 64.164062 C 297.023438 60.851562 295.003906 60.648438 294.0625 55.195312 C 289.703125 55.460938 287.378906 56.382812 284.269531 57.492188 C 286.335938 45.304688 288.164062 47.863281 290.84375 41.414062 C 283.429688 37.695312 288.800781 45.867188 283.585938 38.292969 C 280.867188 34.347656 282.859375 34.324219 278.894531 30.421875 C 271.390625 31.335938 276.273438 30.9375 272.234375 33.230469 C 270.179688 34.398438 272.304688 33.546875 269.339844 34.839844 L 223.542969 66.457031 C 222.667969 67.230469 222.109375 67.949219 221.121094 68.617188 C 218.425781 70.4375 221.410156 68.652344 218.0625 70.160156 L 214.710938 71.484375 C 210.820312 73.164062 215.304688 71.703125 211.753906 72.898438 C 204.597656 75.304688 210.488281 67.425781 195.546875 77.84375 L 189.019531 81.09375 C 192.257812 75.605469 189.570312 80.824219 192.089844 77.417969 L 194.484375 73.492188 C 200.339844 63.140625 199.882812 73.414062 207.570312 59.582031 C 207.59375 59.542969 209.546875 56.582031 209.585938 56.523438 C 204.535156 58.8125 205.300781 59.257812 202.113281 62.957031 C 194.167969 62.769531 197.53125 61.539062 194.535156 61.25 C 192.5 61.054688 193.488281 61.511719 190.835938 62.285156 C 186.507812 63.546875 191.738281 63.019531 188.535156 62.667969 L 180.515625 59.21875 C 184.078125 56.484375 183.960938 58.417969 186.210938 53.636719 L 171.660156 60.082031 C 165.503906 64.105469 168.054688 66.242188 157.566406 68.976562 C 159.589844 70.324219 157.273438 69.574219 160.722656 70.382812 C 160.796875 70.398438 164.980469 70.511719 165.222656 70.511719 L 163.707031 73.265625 C 162.140625 77.25 162.304688 71.589844 163.820312 75.65625 L 172.820312 71.265625 L 170.472656 76.269531 C 157.925781 90.789062 162.96875 88.175781 157.472656 95.9375 L 154.292969 100.464844 C 152.078125 103.25 151.746094 103.230469 148.652344 105.320312 C 145.433594 107.496094 137.898438 115.390625 134.128906 112.828125 L 131.757812 110.730469 C 125.554688 114.453125 124.164062 113.785156 120.9375 118.378906 C 120.617188 117.917969 120.023438 117.214844 119.0625 116.328125 C 118.765625 116.050781 117.214844 114.902344 117.191406 114.8125 C 117.03125 114.234375 116.453125 114.308594 116.085938 114.058594 L 125.851562 110.238281 C 131.917969 108.714844 133.785156 106.558594 132.53125 101.359375 C 124.195312 100.761719 110.792969 121.433594 98.585938 123.28125 L 124.066406 102.117188 C 123.761719 101.871094 123.375 101.484375 123.195312 101.335938 C 123.019531 101.191406 122.566406 100.746094 122.355469 100.585938 L 120.769531 99.402344 C 116.449219 97.128906 114.105469 100.824219 110.429688 103.5 C 100.273438 110.894531 105.242188 103.472656 96.867188 114.695312 C 95.042969 112.148438 96.019531 115.691406 96 111.535156 L 96.320312 109.457031 C 97.292969 105.199219 96.53125 111.347656 98.117188 105.535156 C 89.488281 108.734375 89.675781 113.398438 84.890625 115.824219 C 84.988281 116.113281 85.25 116.519531 85.316406 116.640625 L 87.324219 119.769531 C 80.472656 120.425781 76.125 127.425781 70.011719 131.246094 C 63.566406 135.277344 61.664062 140.539062 55.914062 144.328125 C 53.765625 139.835938 56.691406 146.484375 55.914062 140.464844 C 46.644531 145.199219 50.761719 157.324219 41.191406 170.257812 C 51.117188 169.34375 40.179688 172.277344 52.117188 171.65625 L 73.625 173.382812 L 42.226562 206.726562 C 37.4375 211.230469 31.289062 216.050781 32.199219 223.042969 C 33.296875 231.488281 22.429688 231.871094 19.796875 243.007812 C 28.683594 242.164062 33.996094 228.636719 43.089844 225.363281 L 43.613281 241.535156 C 54.058594 235.792969 53.503906 238.496094 55.71875 240.125 L 42.472656 256.539062 C 51.128906 255.484375 58.925781 244.421875 66.472656 240.644531 C 64.753906 252.019531 61.140625 246.316406 65.402344 255.03125 L 58.042969 256.808594 C 59.160156 260 58.386719 264.023438 59.4375 269.859375 C 65.582031 268.925781 62.886719 268.617188 66.683594 266.132812 L 74.066406 263.179688 C 73.113281 271.421875 66.476562 266.011719 64.804688 276.800781 C 72.550781 273.550781 68.195312 270.542969 76.296875 271.417969 C 85.167969 272.378906 79.664062 274.691406 86.15625 269.15625 C 85.671875 281.074219 78.703125 279.777344 74.671875 279.972656 C 74.152344 284.0625 71.421875 289.628906 72.753906 293.234375 C 72.835938 293.464844 73.15625 294.003906 73.238281 294.195312 L 30.535156 346.722656 C 26.984375 351.605469 19.355469 361.019531 17.648438 364.722656 C 25.285156 360.652344 22.363281 358.441406 28.660156 354.375 L 31.640625 362.855469 C 36.421875 361.375 36.5 360.757812 39.425781 359.304688 L 44.691406 357.925781 C 39.863281 360.722656 37.996094 362.761719 35.539062 369.058594 L 37.1875 369.121094 C 37.332031 369.128906 37.816406 369.148438 37.96875 369.160156 C 38.117188 369.171875 38.570312 369.199219 38.722656 369.210938 L 42.320312 369.574219 C 45.554688 368.84375 46.378906 365.84375 48.113281 362.914062 C 54.933594 371.066406 46.488281 374.207031 45.851562 382.152344 L 65.179688 370.867188 L 74.175781 373.613281 C 69.691406 376 70.230469 375.398438 68.652344 381.613281 C 74.75 379.046875 71.160156 380.546875 75.851562 376.789062 C 74.800781 380.476562 69.324219 389.046875 66.867188 391.8125 L 69.863281 392.09375 C 72.5625 392.878906 69.347656 396.820312 74.078125 391.960938 C 78.832031 387.078125 77.097656 386.386719 83.203125 381.382812 C 87.242188 400.722656 76.476562 400.164062 91.179688 403.667969 C 95.511719 396.929688 103.085938 392.828125 108.617188 386.808594 L 167.46875 341.3125 C 160.289062 351.242188 156.078125 358.523438 146.925781 367.527344 C 135.457031 378.808594 134.9375 383.027344 126.96875 391.8125 C 127.292969 392.027344 127.828125 392.210938 128.039062 392.277344 L 129.960938 392.933594 C 130.128906 392.972656 130.621094 393.027344 130.765625 393.046875 C 131.039062 393.085938 132 392.75 132.503906 392.722656 C 129.6875 395.726562 126.214844 399.167969 124.882812 404.046875 C 143.003906 400.429688 137.351562 388.363281 151.46875 388.355469 C 150.089844 396.585938 152.140625 392.589844 146.890625 397.878906 L 148.328125 397.710938 C 153.792969 397.449219 148.445312 397.679688 154.253906 400.671875 C 155.101562 399.109375 155.121094 398.476562 156.644531 396.699219 C 159.300781 393.605469 155.285156 396.90625 159.675781 394.269531 C 156.273438 406.039062 151.65625 398.65625 151.691406 411.292969 L 157.289062 405.800781 C 157.816406 412.96875 155.652344 411.335938 156.71875 419.804688 L 161.347656 412.230469 C 164.925781 408.816406 164.070312 410.835938 166.453125 410.121094 L 174.230469 405.757812 L 175.726562 414.527344 C 171.457031 416.890625 170.339844 417.484375 168.285156 422.21875 C 174.75 420.371094 180.132812 412.636719 183.242188 407.164062 L 186.582031 413.699219 C 186.300781 415.582031 185.964844 415.324219 185.433594 416.324219 C 182.714844 421.417969 180.8125 424.097656 178.601562 430.296875 C 185.53125 426.882812 187.21875 417.636719 193.949219 413.726562 C 196.550781 417.679688 193.125 421.121094 191.601562 424.050781 C 198.136719 426.261719 200.492188 425.515625 204.863281 419.441406 C 211.597656 410.085938 215.785156 418.816406 220.148438 408.21875 C 222.753906 401.886719 218.15625 407.664062 225.726562 402.191406 C 233.332031 396.691406 226.882812 399.820312 229.429688 397.136719 L 240.429688 389.59375 C 242.644531 388.804688 242.214844 389.023438 245.90625 388.246094 C 244.558594 394.550781 241.167969 399.042969 241.523438 405.03125 C 246.636719 402.957031 241.988281 403.777344 246.96875 398.988281 C 245.476562 405.496094 245.597656 402.082031 246.746094 406.628906 L 248.070312 410.011719 L 257.460938 402.914062 C 259.460938 407.875 255.199219 407.539062 257.65625 411.914062 L 262.097656 408.28125 C 263.417969 406.839844 263.949219 405.871094 264.5 404.863281 C 262.761719 413.921875 257.890625 405.796875 263.179688 420.371094 C 259.710938 422.835938 257.777344 420.796875 257.378906 426.699219 C 260.089844 428.546875 263.851562 428.066406 267.167969 425.652344 L 269.636719 423.363281 C 274.40625 418.402344 270.515625 418.605469 273.789062 412.816406 C 275.828125 409.207031 278.429688 410.664062 279.238281 405.628906 C 279.644531 406.882812 279.675781 408.253906 280.496094 409.800781 C 280.636719 410.070312 280.917969 410.507812 281.066406 410.742188 L 283.445312 413.128906 C 290.203125 411.035156 284.210938 414.246094 288.597656 409.007812 C 300.191406 395.171875 300.6875 393.3125 316.410156 379.277344 C 325.28125 371.355469 334.414062 363.316406 341.492188 354.304688 C 351.136719 342.03125 389.78125 313.839844 404.152344 300.101562 C 409.328125 295.148438 411.613281 286.421875 410.648438 277.773438 C 402.695312 279.214844 406.292969 281.226562 398.691406 282.980469 C 400.816406 280.273438 405.046875 276.460938 406.28125 273.910156 C 407.359375 271.679688 406.738281 272.304688 407.070312 271.363281 L 410.625 264.824219 C 408.113281 266.832031 393.074219 276.375 390.097656 277.507812 C 386.265625 272.828125 388.152344 277.363281 386.3125 272.011719 C 384.125 265.636719 389.320312 263.375 392.539062 258.777344 C 387.3125 261.53125 389.847656 262.015625 383.878906 262.535156 C 384.007812 262.203125 385.082031 259.160156 385.121094 258.972656 L 388.0625 250.871094 C 399.140625 233.277344 394.710938 242.960938 407.363281 229 C 412.917969 222.878906 409.636719 224.285156 418.445312 220.332031 L 421.355469 226.804688 C 428.359375 224.492188 428.765625 226.335938 429.855469 219.507812 C 433.949219 219.652344 433.316406 221.1875 434.925781 220.40625 C 434.417969 219.417969 433.589844 218.222656 433.3125 217.5625 L 431.472656 210.425781 C 430.707031 207.390625 429.574219 203.878906 426.90625 202.148438 C 426.71875 202.027344 426.292969 201.859375 426.097656 201.757812 C 425.898438 201.652344 425.4375 201.546875 425.234375 201.453125 L 423.507812 200.859375 C 419.007812 198.355469 420.949219 194.292969 422.371094 190.066406 C 417.683594 186.34375 418.894531 190.164062 416.78125 184.949219 C 422.871094 183.191406 424.390625 184.472656 423.609375 177.238281 C 419.617188 176.421875 420.808594 175.746094 417.511719 178.457031 C 417.285156 178.644531 417.011719 179.03125 416.800781 179.246094 C 413.109375 182.96875 413.28125 183.996094 407.875 185.8125 C 410.3125 178.226562 411.863281 180.691406 413.40625 174.894531 L 404.179688 172.570312 C 406.328125 168.101562 406.738281 169.042969 410.464844 165.363281 L 420.808594 143.386719 C 420.628906 139.453125 421.023438 142.035156 422.78125 136.609375 C 416.429688 139.199219 415.738281 135.535156 409.8125 144.867188 C 406.953125 149.375 410.980469 147.007812 397.316406 153.585938 C 403.851562 138.769531 410.195312 138.179688 421.164062 129.390625 L 415.589844 127.714844 C 412.636719 128.335938 400.214844 141.902344 399.414062 143.453125 C 394.519531 141.757812 396.921875 142.164062 392.113281 140.65625 C 397.585938 138.882812 397.25 136.722656 396.742188 129.65625 C 388.175781 129.035156 395.171875 131.253906 386.757812 132.589844 C 388.035156 119.855469 410.039062 127.851562 406.210938 111.238281 C 405.945312 111.484375 405.605469 111.863281 405.453125 112.019531 L 402.261719 110.542969 C 396.84375 111.34375 394.132812 113.097656 390.472656 115.519531 L 389.292969 106.734375 C 378.746094 110.007812 386.140625 103.75 378.453125 111.992188 C 374.960938 115.734375 370.65625 118.25 366.261719 120.128906 C 370.902344 113.148438 377.445312 109.347656 382.3125 102.464844 C 382.503906 102.199219 382.761719 101.832031 382.949219 101.5625 L 388.046875 94.484375 C 396.078125 84.445312 402.300781 86.632812 412.074219 76.300781 L 410.617188 75.863281 C 410.488281 75.835938 410.011719 75.726562 409.875 75.699219 L 406.910156 75.339844 C 411.738281 71.160156 412.972656 71.90625 412.636719 62.910156 C 404.011719 65.320312 409.878906 67.34375 394.117188 69.308594 C 395.742188 65.777344 397.238281 64.28125 398.066406 58.726562 C 390.992188 60.96875 392.769531 60.246094 387.980469 65.621094 C 387.359375 66.316406 384.78125 69.046875 384.324219 69.421875 C 381.222656 71.988281 384.203125 70.496094 381.347656 71.164062 L 381.71875 68.285156 C 383.78125 63.492188 387.28125 63.742188 389.945312 59.160156 C 384.316406 62.34375 386.890625 62.554688 380.152344 64.355469 C 382.953125 53.539062 394.710938 47.707031 393.507812 40.636719 C 389.664062 41.601562 383.34375 49.558594 377.613281 52.410156 C 379.867188 43.984375 381.070312 48.292969 383.511719 41.414062 Z M 378.050781 41.414062 " fill-opacity="1" fill-rule="evenodd"/></g><g clip-path="url(#9863fdbb92)"><path fill="#0097b2" d="M 378.050781 35.15625 C 381.695312 31.027344 381.664062 32.777344 383.78125 27.347656 C 370.75 22.214844 364.824219 36.632812 357.175781 43.640625 C 352.15625 48.234375 349.773438 52.085938 343.328125 55.6875 C 337.773438 58.792969 338.710938 60.332031 333.152344 63.539062 C 322.027344 69.960938 315.097656 81.035156 301.511719 85.089844 C 303.773438 79.257812 306.582031 79.390625 312.035156 76.34375 C 309.828125 74.886719 312.933594 75.765625 309.738281 75.816406 L 303.292969 77.414062 C 308.570312 72.816406 310.292969 76.136719 311.019531 68.011719 L 301.597656 73.078125 C 299.726562 67.933594 300.339844 63.195312 301.09375 57.910156 C 297.023438 54.59375 295.003906 54.390625 294.0625 48.9375 C 289.703125 49.203125 287.378906 50.125 284.269531 51.234375 C 286.335938 39.046875 288.164062 41.605469 290.84375 35.15625 C 283.429688 31.4375 288.800781 39.609375 283.585938 32.039062 C 280.867188 28.089844 282.859375 28.066406 278.894531 24.164062 C 271.390625 25.078125 276.273438 24.679688 272.234375 26.976562 C 270.179688 28.140625 272.304688 27.292969 269.339844 28.582031 L 223.542969 60.199219 C 222.667969 60.972656 222.109375 61.691406 221.121094 62.359375 C 218.425781 64.179688 221.410156 62.394531 218.0625 63.90625 L 214.710938 65.226562 C 210.820312 66.90625 215.304688 65.445312 211.753906 66.640625 C 204.597656 69.046875 210.488281 61.167969 195.546875 71.585938 L 189.019531 74.835938 C 192.257812 69.347656 189.570312 74.566406 192.089844 71.160156 L 194.484375 67.238281 C 200.339844 56.882812 199.882812 67.160156 207.570312 53.324219 C 207.59375 53.285156 209.546875 50.324219 209.585938 50.265625 C 204.535156 52.554688 205.300781 53.003906 202.113281 56.699219 C 194.167969 56.511719 197.53125 55.28125 194.535156 54.996094 C 192.5 54.796875 193.488281 55.253906 190.835938 56.027344 C 186.507812 57.289062 191.738281 56.761719 188.535156 56.410156 L 180.515625 52.960938 C 184.078125 50.226562 183.960938 52.160156 186.210938 47.378906 L 171.660156 53.828125 C 165.503906 57.847656 168.054688 59.984375 157.566406 62.71875 C 159.589844 64.066406 157.273438 63.316406 160.722656 64.125 C 160.796875 64.144531 164.980469 64.253906 165.222656 64.253906 L 163.707031 67.007812 C 162.140625 70.992188 162.304688 65.332031 163.820312 69.398438 L 172.820312 65.007812 L 170.472656 70.011719 C 157.925781 84.535156 162.96875 81.921875 157.472656 89.679688 L 154.292969 94.207031 C 152.078125 96.996094 151.746094 96.972656 148.652344 99.0625 C 145.433594 101.238281 137.898438 109.132812 134.128906 106.570312 L 131.757812 104.472656 C 125.554688 108.195312 124.164062 107.527344 120.9375 112.121094 C 120.617188 111.660156 120.023438 110.957031 119.0625 110.070312 C 118.765625 109.792969 117.214844 108.644531 117.191406 108.558594 C 117.03125 107.976562 116.453125 108.054688 116.085938 107.800781 L 125.851562 103.980469 C 131.917969 102.457031 133.785156 100.300781 132.53125 95.101562 C 124.195312 94.503906 110.792969 115.175781 98.585938 117.027344 L 124.066406 95.859375 C 123.761719 95.613281 123.375 95.226562 123.195312 95.078125 C 123.019531 94.933594 122.566406 94.492188 122.355469 94.328125 L 120.769531 93.144531 C 116.449219 90.871094 114.105469 94.566406 110.429688 97.246094 C 100.273438 104.640625 105.242188 97.214844 96.867188 108.4375 C 95.042969 105.890625 96.019531 109.433594 96 105.277344 L 96.320312 103.199219 C 97.292969 98.945312 96.53125 105.089844 98.117188 99.277344 C 89.488281 102.480469 89.675781 107.140625 84.890625 109.566406 C 84.988281 109.855469 85.25 110.261719 85.316406 110.382812 L 87.324219 113.511719 C 80.472656 114.167969 76.125 121.167969 70.011719 124.988281 C 63.566406 129.019531 61.664062 134.28125 55.914062 138.070312 C 53.765625 133.578125 56.691406 140.226562 55.914062 134.207031 C 46.644531 138.941406 50.761719 151.066406 41.191406 164 C 51.117188 163.085938 40.179688 166.019531 52.117188 165.398438 L 73.625 167.125 L 42.226562 200.472656 C 37.4375 204.976562 31.289062 209.792969 32.199219 216.785156 C 33.296875 225.230469 22.429688 225.613281 19.796875 236.753906 C 28.683594 235.90625 33.996094 222.382812 43.089844 219.105469 L 43.613281 235.277344 C 54.058594 229.535156 53.503906 232.238281 55.71875 233.867188 L 42.472656 250.28125 C 51.128906 249.226562 58.925781 238.167969 66.472656 234.386719 C 64.753906 245.761719 61.140625 240.058594 65.402344 248.773438 L 58.042969 250.550781 C 59.160156 253.746094 58.386719 257.765625 59.4375 263.601562 C 65.582031 262.667969 62.886719 262.359375 66.683594 259.875 L 74.066406 256.921875 C 73.113281 265.164062 66.476562 259.757812 64.804688 270.542969 C 72.550781 267.292969 68.195312 264.285156 76.296875 265.160156 C 85.167969 266.121094 79.664062 268.433594 86.15625 262.902344 C 85.671875 274.820312 78.703125 273.519531 74.671875 273.714844 C 74.152344 277.804688 71.421875 283.371094 72.753906 286.976562 C 72.835938 287.207031 73.15625 287.746094 73.238281 287.9375 L 30.535156 340.464844 C 26.984375 345.351562 19.355469 354.765625 17.648438 358.464844 C 25.285156 354.394531 22.363281 352.183594 28.660156 348.117188 L 31.640625 356.597656 C 36.421875 355.117188 36.5 354.5 39.425781 353.046875 L 44.691406 351.667969 C 39.863281 354.464844 37.996094 356.507812 35.539062 362.800781 L 37.1875 362.863281 C 37.332031 362.875 37.816406 362.890625 37.96875 362.902344 C 38.117188 362.914062 38.570312 362.941406 38.722656 362.953125 L 42.320312 363.316406 C 45.554688 362.585938 46.378906 359.585938 48.113281 356.65625 C 54.933594 364.808594 46.488281 367.953125 45.851562 375.898438 L 65.179688 364.609375 L 74.175781 367.359375 C 69.691406 369.742188 70.230469 369.140625 68.652344 375.355469 C 74.75 372.789062 71.160156 374.289062 75.851562 370.535156 C 74.800781 374.21875 69.324219 382.789062 66.867188 385.554688 L 69.863281 385.835938 C 72.5625 386.621094 69.347656 390.5625 74.078125 385.703125 C 78.832031 380.820312 77.097656 380.128906 83.203125 375.125 C 87.242188 394.464844 76.476562 393.90625 91.179688 397.410156 C 95.511719 390.671875 103.085938 386.570312 108.617188 380.550781 L 167.46875 335.054688 C 160.289062 344.988281 156.078125 352.269531 146.925781 361.269531 C 135.457031 372.550781 134.9375 376.769531 126.96875 385.554688 C 127.292969 385.773438 127.828125 385.953125 128.039062 386.019531 L 129.960938 386.675781 C 130.128906 386.714844 130.621094 386.769531 130.765625 386.789062 C 131.039062 386.828125 132 386.492188 132.503906 386.46875 C 129.6875 389.46875 126.214844 392.910156 124.882812 397.789062 C 143.003906 394.171875 137.351562 382.105469 151.46875 382.101562 C 150.089844 390.332031 152.140625 386.332031 146.890625 391.621094 L 148.328125 391.453125 C 153.792969 391.191406 148.445312 391.421875 154.253906 394.414062 C 155.101562 392.851562 155.121094 392.21875 156.644531 390.445312 C 159.300781 387.347656 155.285156 390.648438 159.675781 388.015625 C 156.273438 399.78125 151.65625 392.398438 151.691406 405.035156 L 157.289062 399.542969 C 157.816406 406.714844 155.652344 405.078125 156.71875 413.546875 L 161.347656 405.972656 C 164.925781 402.558594 164.070312 404.582031 166.453125 403.863281 L 174.230469 399.5 L 175.726562 408.273438 C 171.457031 410.636719 170.339844 411.230469 168.285156 415.960938 C 174.75 414.113281 180.132812 406.378906 183.242188 400.90625 L 186.582031 407.445312 C 186.300781 409.324219 185.964844 409.066406 185.433594 410.066406 C 182.714844 415.160156 180.8125 417.839844 178.601562 424.039062 C 185.53125 420.628906 187.21875 411.378906 193.949219 407.472656 C 196.550781 411.421875 193.125 414.863281 191.601562 417.792969 C 198.136719 420.003906 200.492188 419.257812 204.863281 413.183594 C 211.597656 403.828125 215.785156 412.558594 220.148438 401.960938 C 222.753906 395.628906 218.15625 401.410156 225.726562 395.933594 C 233.332031 390.4375 226.882812 393.5625 229.429688 390.878906 L 240.429688 383.335938 C 242.644531 382.546875 242.214844 382.765625 245.90625 381.988281 C 244.558594 388.292969 241.167969 392.785156 241.523438 398.773438 C 246.636719 396.699219 241.988281 397.519531 246.96875 392.730469 C 245.476562 399.242188 245.597656 395.824219 246.746094 400.371094 L 248.070312 403.753906 L 257.460938 396.65625 C 259.460938 401.617188 255.199219 401.285156 257.65625 405.65625 L 262.097656 402.023438 C 263.417969 400.585938 263.949219 399.613281 264.5 398.605469 C 262.761719 407.664062 257.890625 399.539062 263.179688 414.113281 C 259.710938 416.578125 257.777344 414.539062 257.378906 420.441406 C 260.089844 422.289062 263.851562 421.8125 267.167969 419.394531 L 269.636719 417.105469 C 274.40625 412.148438 270.515625 412.351562 273.789062 406.558594 C 275.828125 402.949219 278.429688 404.40625 279.238281 399.371094 C 279.644531 400.625 279.675781 401.996094 280.496094 403.546875 C 280.636719 403.8125 280.917969 404.25 281.066406 404.484375 L 283.445312 406.871094 C 290.203125 404.777344 284.210938 407.988281 288.597656 402.75 C 300.191406 388.914062 300.6875 387.054688 316.410156 373.019531 C 325.28125 365.097656 334.414062 357.058594 341.492188 348.046875 C 351.136719 335.773438 389.78125 307.582031 404.152344 293.84375 C 409.328125 288.890625 411.613281 280.164062 410.648438 271.515625 C 402.695312 272.957031 406.292969 274.96875 398.691406 276.722656 C 400.816406 274.015625 405.046875 270.203125 406.28125 267.652344 C 407.359375 265.421875 406.738281 266.046875 407.070312 265.105469 L 410.625 258.570312 C 408.113281 260.574219 393.074219 270.117188 390.097656 271.25 C 386.265625 266.570312 388.152344 271.105469 386.3125 265.753906 C 384.125 259.378906 389.320312 257.117188 392.539062 252.519531 C 387.3125 255.273438 389.847656 255.757812 383.878906 256.277344 C 384.007812 255.945312 385.082031 252.902344 385.121094 252.714844 L 388.0625 244.613281 C 399.140625 227.019531 394.710938 236.703125 407.363281 222.746094 C 412.917969 216.621094 409.636719 218.027344 418.445312 214.074219 L 421.355469 220.546875 C 428.359375 218.238281 428.765625 220.078125 429.855469 213.25 C 433.949219 213.394531 433.316406 214.929688 434.925781 214.148438 C 434.417969 213.160156 433.589844 211.964844 433.3125 211.304688 L 431.472656 204.167969 C 430.707031 201.132812 429.574219 197.621094 426.90625 195.890625 C 426.71875 195.769531 426.292969 195.601562 426.097656 195.5 C 425.898438 195.398438 425.4375 195.289062 425.234375 195.195312 L 423.507812 194.601562 C 419.007812 192.097656 420.949219 188.035156 422.371094 183.808594 C 417.683594 180.085938 418.894531 183.910156 416.78125 178.691406 C 422.871094 176.933594 424.390625 178.214844 423.609375 170.980469 C 419.617188 170.164062 420.808594 169.488281 417.511719 172.203125 C 417.285156 172.390625 417.011719 172.773438 416.800781 172.988281 C 413.109375 176.710938 413.28125 177.738281 407.875 179.554688 C 410.3125 171.96875 411.863281 174.4375 413.40625 168.636719 L 404.179688 166.3125 C 406.328125 161.847656 406.738281 162.789062 410.464844 159.105469 L 420.808594 137.128906 C 420.628906 133.199219 421.023438 135.78125 422.78125 130.351562 C 416.429688 132.941406 415.738281 129.277344 409.8125 138.613281 C 406.953125 143.117188 410.980469 140.75 397.316406 147.328125 C 403.851562 132.511719 410.195312 131.921875 421.164062 123.136719 L 415.589844 121.457031 C 412.636719 122.078125 400.214844 135.644531 399.414062 137.195312 C 394.519531 135.5 396.921875 135.90625 392.113281 134.398438 C 397.585938 132.625 397.25 130.46875 396.742188 123.402344 C 388.175781 122.777344 395.171875 124.996094 386.757812 126.335938 C 388.035156 113.597656 410.039062 121.59375 406.210938 104.980469 C 405.945312 105.226562 405.605469 105.605469 405.453125 105.765625 L 402.261719 104.289062 C 396.84375 105.085938 394.132812 106.839844 390.472656 109.261719 L 389.292969 100.476562 C 378.746094 103.75 386.140625 97.492188 378.453125 105.734375 C 374.960938 109.476562 370.65625 111.992188 366.261719 113.875 C 370.902344 106.890625 377.445312 103.089844 382.3125 96.210938 C 382.503906 95.941406 382.761719 95.574219 382.949219 95.304688 L 388.046875 88.226562 C 396.078125 78.1875 402.300781 80.375 412.074219 70.042969 L 410.617188 69.605469 C 410.488281 69.578125 410.011719 69.46875 409.875 69.441406 L 406.910156 69.082031 C 411.738281 64.902344 412.972656 65.648438 412.636719 56.652344 C 404.011719 59.0625 409.878906 61.089844 394.117188 63.050781 C 395.742188 59.519531 397.238281 58.027344 398.066406 52.46875 C 390.992188 54.710938 392.769531 53.988281 387.980469 59.363281 C 387.359375 60.058594 384.78125 62.789062 384.324219 63.167969 C 381.222656 65.730469 384.203125 64.242188 381.347656 64.90625 L 381.71875 62.027344 C 383.78125 57.234375 387.28125 57.484375 389.945312 52.902344 C 384.316406 56.085938 386.890625 56.296875 380.152344 58.097656 C 382.953125 47.28125 394.710938 41.449219 393.507812 34.378906 C 389.664062 35.34375 383.34375 43.304688 377.613281 46.152344 C 379.867188 37.726562 381.070312 42.039062 383.511719 35.15625 Z M 378.050781 35.15625 " fill-opacity="1" fill-rule="evenodd"/></g></svg>