<svg xmlns="http://www.w3.org/2000/svg" xmlns:xlink="http://www.w3.org/1999/xlink" width="600" zoomAndPan="magnify" viewBox="0 0 450 449.999984" height="600" preserveAspectRatio="xMidYMid meet" version="1.0"><defs><clipPath id="5b3de45173"><path d="M 11.082031 166 L 417.582031 166 L 417.582031 389.296875 L 11.082031 389.296875 Z M 11.082031 166 " clip-rule="nonzero"/></clipPath><clipPath id="93e152ab5e"><path d="M 18.441406 46 L 439 46 L 439 277 L 18.441406 277 Z M 18.441406 46 " clip-rule="nonzero"/></clipPath></defs><g clip-path="url(#5b3de45173)"><path fill="#cb6ce6" d="M 221.734375 166.019531 L 219.96875 166.019531 C 219.617188 166.355469 219.1875 166.1875 218.785156 166.1875 C 214.1875 166.265625 215.941406 166.394531 213.136719 166.929688 C 209.398438 167.644531 208.917969 167.058594 208.527344 168.097656 C 207.074219 167.433594 207.878906 167.460938 202.035156 169.472656 C 201.863281 169.527344 202.035156 169.527344 192.421875 170.007812 C 191.683594 170.046875 191.136719 169.683594 190.839844 168.980469 C 190.539062 168.277344 189.5 168.125 189.148438 168.796875 C 188.65625 169.734375 188.382812 169.410156 183.460938 169.8125 C 180.488281 170.058594 179.125 170.472656 176.785156 169.914062 C 175.734375 169.667969 175.265625 169.851562 174.722656 170.695312 C 175.203125 171.097656 175.761719 170.992188 176.304688 170.953125 C 183.265625 170.433594 184.125 171.007812 187.488281 170.421875 C 187.839844 170.355469 188.113281 170.527344 188.175781 171.070312 C 186.164062 171.851562 181.4375 173.085938 181.175781 173.097656 C 179.046875 173.214844 177.035156 173.980469 174.917969 174.097656 C 174.722656 174.109375 174.527344 174.226562 174.332031 174.277344 C 171.59375 175.070312 173.125 175.5 163.4375 174.734375 C 161.8125 174.605469 161.8125 174.527344 160.460938 173.472656 C 160.722656 173.332031 160.917969 173.136719 161.152344 173.085938 C 165.644531 172.019531 165.941406 172.242188 166.476562 171.511719 C 167.175781 170.550781 168.398438 170.410156 169.707031 170.410156 C 173.242188 170.421875 173.097656 169.332031 175.941406 168.941406 C 176.359375 168.875 176.8125 168.835938 177.125 168.488281 C 176.980469 168.058594 176.683594 168.136719 176.382812 168.148438 C 173.320312 168.265625 172.371094 168.148438 171.632812 168.226562 C 168.527344 168.566406 155.046875 170.863281 149.34375 172.394531 C 148.019531 172.757812 147.253906 173.566406 147.058594 174.953125 C 146.8125 176.8125 146.957031 178.03125 148.734375 178.1875 C 150.34375 178.332031 151.929688 178.773438 153.566406 178.589844 C 153.878906 178.550781 154.214844 178.566406 154.410156 178.96875 C 154.019531 179.394531 151.058594 180.605469 148.929688 180.746094 C 147.671875 180.835938 147.265625 179.371094 145.019531 179.796875 C 143.851562 180.019531 140.902344 180.96875 138.398438 180.433594 C 137.007812 180.136719 137.203125 180.265625 127.359375 181.371094 C 123.878906 181.757812 120.527344 182.578125 117.34375 184.125 C 115.605469 184.980469 114.242188 186.304688 112.980469 187.773438 C 112.074219 188.835938 112.902344 190.070312 113.839844 190.238281 C 115.605469 190.539062 128.929688 186.449219 130.617188 185.835938 C 131.382812 185.566406 133.59375 185.238281 134.175781 185.175781 C 135.421875 185.046875 136.28125 186.488281 134.746094 187.355469 C 134.539062 187.472656 132.578125 188.265625 132.214844 188.410156 C 130.96875 188.890625 129.722656 188.332031 127.4375 189.433594 C 126.785156 189.746094 124.28125 189.566406 122.515625 190.332031 C 119.929688 191.449219 118.460938 191.695312 117.710938 192.070312 C 112.75 194.539062 112.773438 195.238281 109.761719 195.527344 C 106.617188 195.824219 104.65625 196.96875 99.191406 198.628906 C 98.539062 198.824219 93.605469 200.085938 92.175781 199.851562 C 91.839844 199.796875 87.566406 201.148438 84.929688 203.070312 C 83.152344 204.382812 84.292969 206.148438 82.269531 206.1875 C 76.253906 206.292969 78.308594 205.757812 76.125 205.824219 C 67.476562 206.097656 66.539062 208.863281 60.851562 210.449219 C 53.578125 212.460938 50.175781 211.746094 47.554688 213.460938 C 45.347656 214.902344 46.476562 216.277344 46.671875 218.046875 C 46.96875 220.71875 48.683594 220.835938 50.878906 220.980469 C 51.890625 221.046875 51.867188 221.902344 51.230469 222.253906 C 49.917969 222.992188 48.605469 223.125 46.957031 224.371094 C 45.425781 225.527344 39.359375 225.472656 37.851562 227.085938 C 36.828125 228.1875 37.605469 230.070312 39.929688 229.929688 C 44.164062 229.65625 47.710938 228.890625 50.75 229.355469 C 56.65625 230.277344 59.242188 229.160156 61.046875 229.914062 C 60.96875 230.796875 60.554688 231.253906 59.773438 231.371094 C 57.269531 231.71875 56.996094 231.902344 55.929688 231.65625 C 53.761719 231.148438 53.386719 230.527344 52.632812 231.796875 L 53.386719 232.824219 C 52.980469 233.253906 52.59375 233.394531 52.125 233.394531 C 50.515625 233.433594 45.941406 234.578125 38.460938 235.085938 C 33.425781 235.421875 32.515625 235.34375 32.371094 237.421875 C 32.332031 237.96875 32.371094 238.566406 31.617188 239.070312 C 30.347656 239.914062 30.125 241.8125 31.789062 242.578125 C 33.632812 243.433594 43.605469 243.5 45.632812 243.773438 C 49.5 244.304688 50.035156 243.863281 51.867188 243.992188 C 48.527344 245.070312 45.074219 245.433594 41.695312 246.460938 C 42.007812 247.070312 42.460938 247.121094 42.941406 247.070312 C 73.007812 244.148438 72.320312 244.277344 73.058594 244.914062 C 68.566406 247.109375 71.007812 246.199219 62.773438 247.007812 C 33.773438 249.835938 35.242188 251.121094 32.425781 250.148438 C 31.4375 249.8125 32.097656 248.277344 30.789062 247.824219 C 29.710938 247.449219 28.074219 248.199219 27.8125 249.332031 C 27.515625 250.679688 26.65625 251.199219 25.488281 251.5 C 17.828125 253.410156 17.671875 253.5 16.554688 254.007812 C 15.332031 254.566406 15.539062 256.304688 16.710938 256.679688 C 20.851562 258.046875 37.425781 255.046875 37.710938 254.941406 C 38.554688 254.65625 38.359375 253.566406 37.539062 253.511719 C 35.175781 253.382812 34.761719 253.980469 29.980469 253.980469 C 34.917969 253.007812 35.800781 253.992188 45.761719 251.679688 C 49.488281 250.8125 56.554688 250.449219 57.074219 250.449219 C 58.007812 250.449219 58.035156 251.238281 59.828125 251.511719 C 60.074219 251.550781 60.320312 251.640625 60.566406 251.695312 C 60.488281 252.707031 59.996094 252.449219 60.75 253.292969 C 60.867188 253.421875 60.96875 253.695312 60.917969 253.835938 C 60.773438 254.253906 60.644531 254.734375 60.347656 255.03125 C 57.152344 258.253906 55.917969 258.5625 51.941406 259.65625 C 49.8125 260.238281 49.308594 260.382812 48.65625 259.902344 C 47.644531 259.160156 46.578125 259.371094 45.515625 259.65625 C 45.097656 259.773438 44.8125 260.121094 44.941406 260.550781 C 45.488281 262.410156 41.8125 262.355469 38.839844 264.550781 C 37.371094 265.628906 37.320312 267.136719 38.671875 268.382812 C 39.605469 269.238281 40.957031 269.628906 41.242188 269.734375 C 42.515625 270.199219 42.007812 270.550781 41.671875 273.238281 C 41.5 274.578125 43.488281 276.421875 45.800781 276.109375 C 47.230469 275.914062 46.292969 276.214844 48.929688 275.667969 C 51.074219 275.226562 53.371094 273.226562 56.308594 273.007812 C 57.488281 272.914062 57.683594 273.707031 59.929688 276.042969 C 63.085938 279.332031 65.566406 275.109375 68.488281 277.410156 C 69.65625 278.332031 68.410156 279.238281 67.890625 279.355469 C 63.8125 280.292969 54.527344 280.578125 50.214844 280.019531 C 45.75 279.449219 44.539062 279.277344 43.59375 280.824219 C 42.839844 282.058594 41.851562 281.539062 39.460938 281.667969 C 32.851562 282.03125 16.4375 282.304688 20.113281 287.96875 C 20.878906 289.148438 22.644531 290.410156 24.605469 290.757812 C 27.332031 291.253906 29.957031 292.148438 32.59375 293.042969 C 33.175781 293.238281 34.371094 294.226562 33.230469 294.601562 C 33.097656 294.640625 30.410156 294.433594 28.566406 294.5 C 24.671875 294.628906 24.292969 293.746094 22.8125 293.863281 C 22.074219 293.914062 21.410156 294.679688 21.464844 295.304688 C 21.554688 296.304688 22.371094 297.121094 23.347656 297.121094 C 28.683594 297.148438 57.566406 295.316406 58.980469 297.277344 C 58.890625 297.746094 59.136719 297.785156 51.136719 299.628906 C 43.980469 301.277344 42.058594 298.65625 39.359375 301.070312 C 37.671875 302.578125 38.28125 303.71875 38.890625 305.484375 C 33.8125 306.226562 27.761719 305.03125 29.113281 308.785156 C 29.929688 311.058594 31.65625 310.746094 37.695312 310.65625 C 45.269531 310.539062 47.605469 312.824219 49.734375 313.03125 C 51.398438 313.1875 53.449219 314.382812 53.007812 316.019531 C 50.789062 324.226562 55.800781 323.019531 44.425781 324.199219 C 44.410156 324.199219 34.046875 325.226562 32.464844 325.199219 C 28.851562 325.160156 29.097656 326.863281 26.75 326.292969 C 25.136719 325.902344 22.4375 326.734375 23.007812 329.238281 C 23.28125 330.472656 23.320312 330.773438 21.75 331.265625 C 18.242188 332.371094 20.644531 335.058594 18.085938 335.433594 C 16.671875 335.640625 15.308594 335.253906 14.28125 337.003906 C 13.828125 337.785156 13.851562 338.316406 14.4375 338.992188 C 15.230469 339.890625 16.203125 340.40625 17.386719 340.445312 C 28.28125 340.785156 41.4375 338.042969 44.113281 338.8125 C 46.851562 339.589844 53.644531 339.578125 55.90625 339.578125 C 55.941406 340.199219 55.878906 341.199219 56.851562 341.550781 C 57.941406 341.941406 58.90625 342.734375 60.152344 342.757812 C 52.59375 343.734375 54.320312 342.5 37.425781 344.953125 C 30.644531 345.941406 27.539062 346.070312 23.566406 346.484375 C 21.96875 346.65625 20.398438 347.109375 18.761719 347.109375 C 18.359375 347.109375 17.96875 347.304688 17.566406 347.382812 C 16.371094 347.601562 16.007812 348.640625 15.554688 349.578125 C 15.488281 349.707031 15.5 349.992188 15.59375 350.097656 C 16.96875 351.578125 17.347656 351.980469 19.617188 351.746094 C 20.890625 351.617188 23.035156 351.226562 23.800781 351.238281 C 25.242188 351.277344 26.671875 351.277344 28.085938 350.902344 C 29.917969 350.421875 30.4375 353.472656 28.527344 353.8125 C 22.75 354.851562 24.957031 355.003906 15.253906 355.589844 C 13.425781 355.707031 11.96875 356.40625 11.125 358.1875 L 11.125 359.65625 C 12.710938 363.097656 18.136719 359.992188 20.957031 359.875 C 21.996094 359.835938 29.019531 358.199219 33.605469 357.601562 C 46.113281 355.980469 39.722656 356.1875 46.253906 355.71875 C 47.214844 355.65625 47.773438 356.914062 50.683594 356.886719 C 60.488281 356.773438 58.695312 356.785156 60.488281 356.785156 C 60.710938 357.199219 60.828125 357.601562 61.085938 357.875 C 62.007812 358.863281 61.097656 360.914062 59.8125 361.71875 C 58.136719 362.757812 56.671875 363.121094 51.242188 365.316406 C 44.515625 368.042969 47.96875 373.367188 50.410156 372.992188 C 52.269531 372.707031 52.941406 373.707031 55.164062 374.042969 C 60.695312 374.902344 62.253906 374.707031 63.941406 374.925781 C 65.449219 375.121094 63.8125 376.914062 66.527344 378.472656 C 70.386719 380.679688 70.578125 382.902344 72.917969 382.433594 C 78.191406 381.382812 88.347656 381.980469 88.878906 381.785156 C 88.957031 380.097656 88.046875 379.5625 90.671875 379.382812 C 96.554688 378.980469 100.617188 378.265625 105.28125 378.277344 C 106.65625 378.277344 107.683594 377.796875 107.75 376.421875 C 107.789062 375.539062 107.566406 375.757812 102.4375 373.523438 C 101.734375 373.214844 101.671875 372.511719 102.292969 372.042969 C 105.097656 369.964844 105.671875 371.667969 106.824219 370.226562 C 107.890625 371.328125 107.851562 369.773438 117.035156 370.875 C 124.695312 371.796875 131.527344 372.070312 138.230469 372.695312 C 141.136719 372.964844 141.683594 372.003906 143.734375 371.824219 C 144.59375 371.746094 147.410156 371.65625 148.398438 372.367188 C 149.332031 373.042969 150.421875 372.617188 157.566406 373.304688 C 164.851562 374.003906 164.125 373.109375 168.398438 373.589844 C 208.980469 378.1875 206.605469 382.679688 212.109375 381.734375 C 213.734375 381.445312 215.175781 380.796875 213.96875 379.5625 C 213.320312 378.902344 213.371094 379.019531 213.5 378.796875 L 214.410156 378.953125 C 213.746094 377.886719 212.890625 377.445312 211.761719 377.5 C 202.839844 377.941406 193.996094 373.082031 182.929688 370.886719 C 181.59375 370.617188 181.421875 369.796875 179.996094 369.539062 L 166.800781 367.082031 C 165.527344 366.847656 166.734375 367.835938 164.320312 367.667969 C 152.164062 366.824219 155.113281 367.03125 151.671875 366.953125 C 151.566406 366.484375 151.292969 366.070312 151.683594 365.773438 C 152.34375 365.265625 153.019531 364.757812 153.902344 364.757812 C 155.902344 364.757812 157.902344 364.785156 159.839844 365.445312 C 160.242188 365.589844 160.671875 365.65625 161.019531 365.367188 C 161.449219 365.03125 161.4375 365.109375 165.878906 365.628906 C 167.136719 365.785156 166.773438 364.847656 167.878906 364.773438 C 186.164062 363.617188 218.589844 368.914062 224.34375 370.214844 C 241.203125 374.003906 240.734375 374.226562 242.332031 373.355469 C 244.03125 372.421875 244.707031 373.707031 249.488281 372.847656 C 250.722656 372.628906 251.148438 371.71875 252.644531 371.953125 C 261.707031 373.367188 262.421875 373.367188 263.628906 374.070312 C 265.707031 375.265625 267.097656 375.5 276.253906 378.109375 C 282.605469 379.914062 285.148438 383.550781 287.890625 386.394531 C 289.421875 385.097656 284.605469 381.460938 283.1875 380.34375 C 280.046875 377.847656 277.863281 377.5625 277.746094 377.40625 C 277.605469 377.199219 277.5 376.964844 277.382812 376.746094 C 277.605469 376.628906 277.8125 376.460938 278.046875 376.40625 C 278.203125 376.367188 279.578125 376.875 280.605469 377.042969 C 287.292969 378.121094 288.800781 379.953125 290.746094 380.304688 C 294.085938 380.914062 294.472656 378.148438 297.265625 378.746094 C 299.734375 379.265625 306.214844 380.589844 309.1875 381.148438 C 310.058594 381.316406 312.097656 380.992188 313.125 381.1875 C 314.578125 381.460938 323.265625 383.964844 328.097656 386.316406 C 329.253906 386.875 330.253906 387.667969 331.226562 388.472656 C 332.550781 389.578125 334.164062 389.082031 334.550781 387.355469 C 334.734375 386.550781 334.851562 386.40625 335.589844 386.421875 C 337.449219 386.460938 339.320312 386.421875 341.125 386.914062 C 344.28125 387.773438 352.34375 388.757812 352.355469 388.757812 C 355.046875 389.003906 357.382812 388.835938 357.175781 386.175781 C 357.070312 384.808594 356.5 384.796875 355.136719 383.226562 C 353.421875 381.238281 351.835938 380.71875 349.203125 379.367188 C 343.03125 376.214844 341.070312 374.773438 337.628906 374.367188 C 335.914062 374.160156 336.707031 373.835938 335.382812 373.484375 C 333.566406 373.003906 334.65625 373.484375 332.589844 372.578125 C 332.589844 371.148438 332.382812 369.941406 331.125 369.175781 C 330.511719 368.796875 328.019531 366.382812 325.164062 364.992188 C 323.914062 364.382812 324.292969 364.8125 319.722656 361.304688 C 320.667969 361.304688 339.683594 366.421875 345.617188 370.175781 C 348.488281 371.980469 353.355469 372.65625 356.722656 371.734375 C 358.292969 371.304688 358.109375 368.746094 356.941406 367.773438 C 355.28125 366.382812 352.175781 364.082031 351.046875 363.238281 C 352.421875 359.65625 348.785156 359.757812 348.109375 359.394531 C 347.589844 359.109375 348.136719 359.355469 344.058594 357.03125 C 344.136719 356.082031 344.1875 355.925781 345.03125 355.757812 C 346.589844 355.445312 348.175781 355.175781 349.707031 355.941406 C 352.449219 357.304688 351.695312 357.148438 352.371094 357.484375 C 355.644531 359.1875 361.332031 359.460938 362.394531 354.121094 C 362.550781 353.34375 362.605469 352.863281 363.410156 352.953125 C 365.835938 353.238281 364.148438 354.34375 370.941406 356.109375 C 371.253906 356.1875 371.605469 356.226562 371.902344 356.148438 C 373.316406 355.785156 374.96875 355.746094 375.265625 353.71875 C 375.914062 352.992188 375.292969 352.136719 374.851562 350.925781 C 374.550781 350.097656 374.667969 350.019531 374.644531 348.695312 C 374.527344 343.875 372.421875 343.148438 371.019531 340.109375 C 370.1875 338.304688 369.914062 338.175781 368.578125 336.65625 C 371.136719 336.421875 371.902344 336.679688 373.1875 335.03125 C 375.527344 332.003906 358.355469 327.097656 356.578125 324.902344 C 356.316406 324.578125 355.96875 324.589844 355.644531 324.875 C 355.007812 325.445312 354.5 325.746094 355.148438 326.445312 C 356.28125 327.667969 357.929688 327.03125 360.355469 329.003906 C 360.707031 329.292969 362.355469 330.785156 362.058594 331.160156 C 361.734375 331.578125 361.03125 331.410156 359.746094 331.042969 C 355.746094 329.875 355.34375 329.679688 355.046875 329.371094 C 353.617188 327.824219 352.148438 325.5625 352.433594 323.484375 C 354.941406 322.148438 356.550781 322.863281 360.382812 322.773438 C 362.175781 322.734375 364.125 321.109375 362.460938 319.199219 C 361.628906 318.253906 361.722656 317.8125 361.394531 317.03125 C 360.617188 315.148438 360.125 316.539062 357.785156 315.851562 C 354.292969 314.824219 353.164062 314.992188 351.203125 313.929688 C 349.578125 313.058594 347.875 312.382812 346.03125 312.148438 C 345.242188 312.042969 344.605469 312.1875 344.085938 312.902344 C 343.472656 313.746094 341.773438 313.96875 341.695312 312.992188 C 341.5 310.292969 341.539062 309.589844 342.421875 309.265625 C 349.03125 306.890625 351.085938 308.175781 357.371094 309.511719 C 362.175781 310.539062 362.226562 309.097656 364.707031 309.695312 C 375.796875 312.371094 381.992188 313.097656 389.433594 318.316406 C 389.96875 318.695312 390.511719 319.199219 391.511719 318.941406 C 391.8125 318.863281 392.667969 318.265625 391.707031 317.5625 C 391.304688 317.265625 388.433594 315.394531 387.070312 314.578125 C 385.605469 313.695312 384.449219 312.292969 382.746094 311.824219 C 382.304688 311.707031 381.644531 310.550781 376.277344 308.773438 C 368.539062 306.199219 370.488281 307.433594 366.683594 306.003906 C 365.890625 305.707031 365.148438 305.238281 364.265625 305.175781 C 364.070312 305.160156 363.875 305.019531 363.722656 304.890625 C 360.96875 302.707031 361.371094 303.007812 361.109375 302.550781 C 364.578125 301.121094 364.019531 300.835938 371.8125 303.71875 C 378.550781 306.214844 381.371094 308.1875 383.980469 305.304688 C 384.578125 304.65625 384.617188 304.316406 384.1875 303.511719 C 382.757812 300.851562 381.539062 301.277344 373.070312 296.03125 C 369.707031 293.953125 370.394531 292.292969 371.394531 292.875 C 373.527344 294.121094 375.785156 291.824219 374.332031 290.109375 C 373.277344 288.875 370.164062 288.527344 370.5 287.472656 C 370.890625 286.265625 374.058594 288.941406 374.332031 286.1875 C 374.460938 284.851562 373.761719 284.175781 372.539062 283.304688 C 370.292969 281.679688 370.578125 282.679688 370.394531 280.226562 C 371.007812 280.082031 371.511719 280.148438 372.03125 280.421875 C 373.695312 281.265625 375.214844 281.539062 376.511719 282.046875 C 379.539062 283.226562 381.226562 283.148438 383.085938 283.019531 C 383.929688 282.953125 384.539062 281.667969 383.488281 281.019531 C 383.019531 280.734375 381.734375 280.148438 381.242188 279.914062 C 382.304688 279.679688 382.460938 279.355469 383.355469 279.824219 C 384.695312 280.527344 384.695312 278.953125 386.214844 279.292969 C 386.902344 279.449219 387.617188 279.460938 388.316406 279.488281 C 388.796875 279.5 389.203125 279.277344 389.304688 278.757812 C 389.511719 277.667969 390.875 278.070312 393.058594 278.511719 C 395.421875 281.707031 395.136719 282.148438 396.109375 282.628906 C 399.488281 284.332031 399.628906 285.019531 400.382812 285.304688 C 403.628906 286.539062 407.488281 287.371094 407.796875 287.382812 C 416.175781 287.695312 415.835938 287.863281 417.433594 284.433594 C 417.433594 283.472656 416.058594 282.097656 415.125 280.980469 C 414.214844 279.902344 413.304688 279.578125 413.109375 278.902344 C 412.34375 276.1875 409.1875 273.96875 407.253906 274.136719 C 407.136719 274.148438 406.902344 273.667969 407.667969 273.292969 C 408.746094 272.773438 408.164062 271.617188 409.757812 272.109375 C 413.667969 273.304688 413.757812 273.96875 414.371094 272.019531 C 413.734375 271.449219 410.148438 269.851562 409.007812 269.472656 C 405.589844 268.371094 403.097656 266.550781 401.757812 267.019531 C 400.851562 267.332031 400.125 266.71875 400.046875 265.65625 C 400.527344 265.472656 401.164062 265.511719 401.421875 265.550781 C 408.605469 266.796875 408.707031 267.757812 409.214844 266.941406 C 409.433594 266.578125 409.371094 266.199219 409.070312 265.953125 C 408.589844 265.566406 408.097656 265.175781 407.550781 264.890625 C 404.667969 263.394531 405.046875 262.472656 402.421875 261.410156 C 400.65625 260.695312 392.683594 257.941406 390.164062 257.371094 C 388.8125 257.070312 389.226562 255.449219 390.5 255.175781 C 392.550781 254.734375 392.539062 252.097656 396.316406 252.578125 C 399.449219 252.980469 400.722656 253.511719 401.796875 252.914062 C 403.355469 252.046875 404.125 252.824219 408.941406 253.628906 C 411.058594 253.980469 413.890625 253.890625 413.226562 251.835938 C 412.628906 249.992188 412.058594 248.34375 411.421875 248.070312 C 410.019531 247.472656 409.863281 246.746094 408.449219 246.199219 C 401.238281 243.433594 399.902344 242.707031 396.941406 242.1875 C 394.96875 241.835938 394.8125 243.214844 393.757812 242.914062 L 393.929688 240.136719 C 394.980469 239.539062 396.253906 239.773438 396.722656 239.617188 C 397.292969 239.421875 397.5 238.773438 397.058594 238.421875 C 395.628906 237.265625 396.203125 235.734375 395.085938 235.550781 C 392.683594 235.160156 392.226562 233.058594 390.148438 233.5 C 388.785156 233.785156 388.953125 232.824219 388.953125 229.980469 C 390.902344 228.355469 396.070312 231.835938 395.566406 229.410156 C 395.214844 227.746094 394.695312 226.460938 393.125 225.890625 C 390.683594 224.992188 388.304688 223.65625 385.355469 223.214844 C 384.164062 223.03125 384.824219 222.1875 381.214844 221.578125 C 378.292969 221.085938 378.902344 220.566406 376.292969 219.683594 C 366.628906 216.394531 367.136719 216.851562 355.136719 213.007812 C 353.394531 212.449219 351.707031 211.71875 349.875 211.472656 C 348.589844 211.304688 347.382812 210.929688 346.5 209.890625 C 345.566406 208.785156 344.785156 208.914062 340.472656 207.851562 C 325.644531 204.175781 340.097656 206.628906 341.667969 206.019531 C 338.617188 204.277344 337.863281 204.511719 335.773438 203.796875 C 335.878906 202.773438 344.03125 204.914062 344.214844 203.992188 C 344.304688 203.527344 343.800781 203.226562 343.332031 203.109375 C 342.617188 202.914062 334.410156 200.667969 333.578125 200.683594 C 333.148438 200.683594 332.527344 200.527344 332.28125 199.96875 C 338.449219 199.96875 336.746094 200.578125 340.058594 200.722656 C 343.109375 200.851562 343.125 201.175781 345.617188 201.304688 C 345.929688 200.097656 345.03125 200.566406 341.433594 199.355469 C 337.617188 198.058594 332.488281 197.277344 331.472656 197.03125 C 313.527344 192.628906 315.046875 191.617188 313.707031 192.007812 C 312.605469 192.332031 312.449219 190.410156 313.644531 190.539062 C 315.136719 190.695312 315.761719 189.746094 316.628906 188.527344 C 317.785156 186.902344 317.292969 185.628906 316.902344 183.550781 C 319.136719 183.835938 319.253906 184.382812 320.917969 184.617188 C 328.878906 185.761719 329.460938 185.511719 330.136719 185.058594 C 331.007812 184.488281 333.164062 185.226562 334.1875 183.667969 C 352.292969 187.761719 355.382812 189.488281 355.65625 187.851562 C 355.824219 186.835938 353.511719 185.796875 352.550781 185.578125 C 349.175781 184.785156 348.589844 183.851562 345.1875 183.96875 C 342.28125 184.058594 342.304688 183.929688 335.5 182.242188 C 335.410156 182.214844 335.332031 182.109375 335.242188 182.03125 C 335.410156 181.824219 335.550781 181.667969 335.65625 181.5 C 336.253906 180.5 335.683594 179.046875 334.550781 178.863281 C 333.332031 178.667969 332.109375 178.472656 330.878906 178.488281 C 327.125 178.5 323.449219 177.214844 322.007812 176.253906 C 321.566406 175.96875 319.265625 175.449219 318.058594 175.511719 C 313.253906 175.773438 311.644531 175.5 309.863281 174.433594 C 306.851562 172.644531 305.109375 172.992188 299.007812 172.722656 C 292.929688 172.449219 294.070312 171.734375 292.371094 171.511719 C 281.449219 170.136719 280.148438 170.136719 276.644531 169.265625 C 274.578125 168.761719 274.734375 165.046875 270.4375 168.253906 C 269.460938 168.980469 268.734375 169.097656 265.292969 168.980469 C 262.683594 168.890625 263.761719 168.449219 260.578125 168.410156 C 259.734375 168.394531 257.4375 168.046875 256.265625 168.136719 C 249.539062 168.65625 244.085938 166.605469 242.253906 167.097656 C 240.382812 167.605469 239.476562 167.109375 235.667969 167.164062 C 223.136719 167.277344 226.019531 168.253906 221.734375 166.019531 Z M 59.59375 243.121094 C 59.554688 242.707031 59.59375 243.085938 62.96875 242.539062 C 64.488281 242.292969 66.074219 242.253906 67.410156 241.304688 C 67.421875 241.292969 71.074219 240.71875 71.230469 240.785156 C 72.449219 241.265625 74.789062 240.382812 77.074219 240.382812 C 76.59375 240.8125 76.074219 241.03125 75.59375 241.332031 C 74.59375 241.96875 73.828125 241.953125 72.632812 242.097656 C 63.113281 243.160156 63.292969 243.175781 63.097656 243.070312 C 62.320312 242.695312 61.902344 242.941406 59.59375 243.121094 Z M 59.59375 243.121094 " fill-opacity="1" fill-rule="nonzero"/></g><g clip-path="url(#93e152ab5e)"><path fill="#cb6ce6" d="M 236.386719 46.007812 L 234.558594 46.007812 C 234.199219 46.355469 233.753906 46.183594 233.335938 46.183594 C 228.582031 46.261719 230.394531 46.398438 227.492188 46.949219 C 223.621094 47.6875 223.125 47.082031 222.722656 48.15625 C 221.21875 47.472656 222.050781 47.5 216.003906 49.582031 C 215.828125 49.636719 216.003906 49.636719 206.058594 50.132812 C 205.292969 50.171875 204.730469 49.796875 204.421875 49.070312 C 204.113281 48.347656 203.035156 48.183594 202.675781 48.882812 C 202.164062 49.851562 201.882812 49.515625 196.789062 49.929688 C 193.710938 50.1875 192.300781 50.617188 189.882812 50.039062 C 188.792969 49.785156 188.308594 49.972656 187.746094 50.84375 C 188.242188 51.261719 188.820312 51.152344 189.386719 51.113281 C 196.585938 50.578125 197.472656 51.167969 200.953125 50.5625 C 201.316406 50.496094 201.597656 50.671875 201.667969 51.234375 C 199.582031 52.039062 194.691406 53.316406 194.421875 53.332031 C 192.21875 53.453125 190.136719 54.246094 187.945312 54.367188 C 187.746094 54.378906 187.542969 54.5 187.34375 54.554688 C 184.507812 55.375 186.09375 55.816406 176.070312 55.023438 C 174.390625 54.890625 174.390625 54.808594 172.992188 53.71875 C 173.261719 53.574219 173.460938 53.371094 173.703125 53.316406 C 178.351562 52.214844 178.664062 52.445312 179.214844 51.691406 C 179.9375 50.699219 181.203125 50.550781 182.558594 50.550781 C 186.214844 50.5625 186.066406 49.433594 189.007812 49.03125 C 189.4375 48.964844 189.910156 48.921875 190.230469 48.5625 C 190.082031 48.117188 189.773438 48.199219 189.464844 48.210938 C 186.292969 48.332031 185.3125 48.210938 184.546875 48.292969 C 181.335938 48.640625 167.386719 51.019531 161.488281 52.605469 C 160.117188 52.980469 159.328125 53.816406 159.125 55.253906 C 158.871094 57.175781 159.015625 58.4375 160.859375 58.597656 C 162.523438 58.746094 164.164062 59.203125 165.855469 59.015625 C 166.179688 58.972656 166.527344 58.988281 166.730469 59.40625 C 166.328125 59.847656 163.261719 61.097656 161.058594 61.246094 C 159.757812 61.339844 159.339844 59.820312 157.015625 60.265625 C 155.804688 60.492188 152.753906 61.472656 150.164062 60.921875 C 148.722656 60.613281 148.925781 60.75 138.742188 61.890625 C 135.140625 62.292969 131.671875 63.140625 128.382812 64.738281 C 126.582031 65.625 125.167969 66.996094 123.867188 68.515625 C 122.925781 69.617188 123.785156 70.894531 124.753906 71.066406 C 126.582031 71.375 140.367188 67.144531 142.113281 66.511719 C 142.90625 66.230469 145.191406 65.894531 145.796875 65.828125 C 147.085938 65.691406 147.972656 67.183594 146.386719 68.085938 C 146.171875 68.207031 144.140625 69.023438 143.765625 69.171875 C 142.476562 69.671875 141.1875 69.09375 138.820312 70.234375 C 138.148438 70.558594 135.554688 70.367188 133.730469 71.160156 C 131.054688 72.316406 129.535156 72.574219 128.757812 72.960938 C 123.625 75.515625 123.652344 76.242188 120.535156 76.535156 C 117.28125 76.847656 115.253906 78.027344 109.597656 79.75 C 108.925781 79.949219 103.816406 81.253906 102.339844 81.011719 C 101.992188 80.957031 97.570312 82.355469 94.84375 84.34375 C 93 85.699219 94.183594 87.527344 92.085938 87.570312 C 85.867188 87.675781 87.988281 87.125 85.730469 87.191406 C 76.78125 87.472656 75.816406 90.335938 69.929688 91.976562 C 62.40625 94.058594 58.882812 93.320312 56.171875 95.09375 C 53.886719 96.585938 55.054688 98.007812 55.257812 99.835938 C 55.566406 102.605469 57.339844 102.726562 59.609375 102.875 C 60.660156 102.941406 60.632812 103.828125 59.972656 104.191406 C 58.617188 104.957031 57.257812 105.089844 55.550781 106.378906 C 53.964844 107.578125 47.691406 107.523438 46.132812 109.1875 C 45.070312 110.332031 45.878906 112.277344 48.28125 112.132812 C 52.664062 111.847656 56.332031 111.054688 59.476562 111.539062 C 65.589844 112.492188 68.265625 111.339844 70.132812 112.117188 C 70.050781 113.03125 69.621094 113.5 68.816406 113.621094 C 66.222656 113.984375 65.9375 114.171875 64.835938 113.917969 C 62.59375 113.394531 62.203125 112.75 61.425781 114.066406 L 62.203125 115.128906 C 61.785156 115.570312 61.382812 115.71875 60.898438 115.71875 C 59.234375 115.757812 54.503906 116.941406 46.765625 117.464844 C 41.550781 117.816406 40.609375 117.734375 40.460938 119.882812 C 40.421875 120.449219 40.460938 121.066406 39.683594 121.589844 C 38.367188 122.464844 38.136719 124.425781 39.859375 125.21875 C 41.765625 126.105469 52.085938 126.171875 54.183594 126.457031 C 58.1875 127.007812 58.738281 126.550781 60.632812 126.683594 C 57.179688 127.800781 53.605469 128.175781 50.109375 129.238281 C 50.433594 129.867188 50.902344 129.921875 51.398438 129.867188 C 82.507812 126.84375 81.792969 126.980469 82.5625 127.636719 C 77.910156 129.910156 80.4375 128.96875 71.917969 129.800781 C 41.914062 132.730469 43.433594 134.058594 40.515625 133.050781 C 39.496094 132.703125 40.179688 131.117188 38.824219 130.648438 C 37.707031 130.257812 36.015625 131.039062 35.746094 132.207031 C 35.4375 133.605469 34.550781 134.140625 33.339844 134.449219 C 25.414062 136.425781 25.25 136.519531 24.097656 137.042969 C 22.832031 137.621094 23.046875 139.421875 24.257812 139.8125 C 28.542969 141.222656 45.691406 138.117188 45.984375 138.011719 C 46.859375 137.714844 46.65625 136.585938 45.808594 136.53125 C 43.363281 136.398438 42.933594 137.015625 37.988281 137.015625 C 43.097656 136.007812 44.011719 137.03125 54.316406 134.636719 C 58.171875 133.738281 65.480469 133.363281 66.019531 133.363281 C 66.988281 133.363281 67.015625 134.179688 68.867188 134.464844 C 69.125 134.503906 69.378906 134.597656 69.632812 134.652344 C 69.554688 135.699219 69.042969 135.429688 69.824219 136.304688 C 69.941406 136.4375 70.050781 136.722656 69.996094 136.867188 C 69.847656 137.296875 69.714844 137.796875 69.40625 138.105469 C 66.101562 141.4375 64.824219 141.761719 60.710938 142.886719 C 58.507812 143.492188 57.984375 143.640625 57.3125 143.144531 C 56.265625 142.378906 55.164062 142.59375 54.0625 142.886719 C 53.628906 143.007812 53.335938 143.371094 53.46875 143.816406 C 54.035156 145.738281 50.230469 145.683594 47.152344 147.953125 C 45.636719 149.070312 45.582031 150.628906 46.980469 151.917969 C 47.945312 152.804688 49.34375 153.207031 49.640625 153.316406 C 50.957031 153.800781 50.433594 154.164062 50.082031 156.945312 C 49.910156 158.328125 51.964844 160.234375 54.355469 159.914062 C 55.835938 159.710938 54.867188 160.019531 57.59375 159.457031 C 59.8125 159 62.191406 156.929688 65.226562 156.703125 C 66.449219 156.609375 66.652344 157.425781 68.976562 159.847656 C 72.242188 163.246094 74.808594 158.878906 77.832031 161.257812 C 79.039062 162.210938 77.75 163.152344 77.210938 163.273438 C 72.992188 164.238281 63.386719 164.535156 58.925781 163.957031 C 54.300781 163.367188 53.054688 163.191406 52.070312 164.789062 C 51.292969 166.066406 50.273438 165.53125 47.800781 165.664062 C 40.960938 166.039062 23.976562 166.324219 27.777344 172.179688 C 28.570312 173.402344 30.398438 174.707031 32.425781 175.070312 C 35.25 175.582031 37.964844 176.507812 40.691406 177.433594 C 41.296875 177.636719 42.53125 178.65625 41.347656 179.046875 C 41.214844 179.089844 38.433594 178.871094 36.527344 178.941406 C 32.496094 179.074219 32.105469 178.160156 30.574219 178.28125 C 29.808594 178.335938 29.121094 179.128906 29.175781 179.773438 C 29.269531 180.808594 30.117188 181.65625 31.125 181.65625 C 36.644531 181.679688 66.53125 179.785156 67.996094 181.816406 C 67.902344 182.300781 68.15625 182.339844 59.878906 184.246094 C 52.476562 185.953125 50.488281 183.238281 47.691406 185.738281 C 45.945312 187.296875 46.578125 188.480469 47.207031 190.308594 C 41.953125 191.074219 35.691406 189.835938 37.089844 193.722656 C 37.9375 196.070312 39.722656 195.75 45.972656 195.65625 C 53.804688 195.535156 56.222656 197.898438 58.429688 198.113281 C 60.148438 198.277344 62.269531 199.511719 61.8125 201.207031 C 59.515625 209.699219 64.703125 208.449219 52.933594 209.671875 C 52.917969 209.671875 42.195312 210.730469 40.554688 210.707031 C 36.820312 210.664062 37.078125 212.425781 34.644531 211.832031 C 32.976562 211.429688 30.183594 212.289062 30.773438 214.882812 C 31.054688 216.160156 31.097656 216.46875 29.472656 216.980469 C 25.84375 218.121094 28.328125 220.902344 25.683594 221.292969 C 24.21875 221.507812 22.804688 221.105469 21.746094 222.917969 C 21.273438 223.726562 21.300781 224.277344 21.90625 224.976562 C 22.726562 225.902344 23.734375 226.441406 24.957031 226.480469 C 36.230469 226.828125 49.839844 223.996094 52.609375 224.789062 C 55.445312 225.59375 62.472656 225.578125 64.808594 225.578125 C 64.851562 226.226562 64.785156 227.257812 65.792969 227.621094 C 66.921875 228.027344 67.914062 228.84375 69.203125 228.871094 C 61.382812 229.878906 63.171875 228.601562 45.691406 231.144531 C 38.675781 232.164062 35.464844 232.296875 31.351562 232.726562 C 29.699219 232.902344 28.074219 233.375 26.378906 233.375 C 25.964844 233.375 25.5625 233.574219 25.144531 233.65625 C 23.90625 233.882812 23.53125 234.960938 23.0625 235.925781 C 22.996094 236.0625 23.007812 236.355469 23.101562 236.464844 C 24.527344 237.996094 24.914062 238.414062 27.265625 238.171875 C 28.585938 238.035156 30.800781 237.632812 31.59375 237.644531 C 33.085938 237.6875 34.5625 237.6875 36.027344 237.296875 C 37.921875 236.800781 38.460938 239.957031 36.484375 240.308594 C 30.503906 241.382812 32.789062 241.542969 22.753906 242.148438 C 20.859375 242.269531 19.351562 242.996094 18.480469 244.835938 L 18.480469 246.355469 C 20.117188 249.914062 25.734375 246.703125 28.652344 246.582031 C 29.726562 246.542969 36.996094 244.847656 41.738281 244.230469 C 54.679688 242.550781 48.066406 242.765625 54.828125 242.28125 C 55.820312 242.214844 56.398438 243.519531 59.410156 243.492188 C 69.554688 243.371094 67.699219 243.382812 69.554688 243.382812 C 69.78125 243.8125 69.902344 244.230469 70.171875 244.511719 C 71.125 245.535156 70.183594 247.65625 68.855469 248.488281 C 67.121094 249.566406 65.601562 249.941406 59.988281 252.210938 C 53.027344 255.035156 56.601562 260.542969 59.125 260.152344 C 61.046875 259.859375 61.746094 260.890625 64.042969 261.242188 C 69.769531 262.128906 71.382812 261.925781 73.128906 262.15625 C 74.6875 262.355469 72.992188 264.210938 75.800781 265.824219 C 79.792969 268.109375 79.996094 270.40625 82.414062 269.921875 C 87.867188 268.832031 98.375 269.453125 98.925781 269.25 C 99.007812 267.503906 98.066406 266.953125 100.78125 266.765625 C 106.867188 266.347656 111.074219 265.609375 115.898438 265.621094 C 117.320312 265.621094 118.382812 265.125 118.449219 263.699219 C 118.492188 262.785156 118.261719 263.015625 112.957031 260.703125 C 112.230469 260.382812 112.164062 259.65625 112.808594 259.171875 C 115.710938 257.023438 116.300781 258.78125 117.496094 257.292969 C 118.597656 258.433594 118.558594 256.820312 128.058594 257.964844 C 135.984375 258.917969 143.054688 259.199219 149.988281 259.84375 C 152.996094 260.125 153.5625 259.132812 155.683594 258.945312 C 156.570312 258.863281 159.488281 258.769531 160.507812 259.507812 C 161.476562 260.207031 162.605469 259.765625 169.996094 260.476562 C 177.535156 261.203125 176.78125 260.273438 181.203125 260.769531 C 223.191406 265.527344 220.734375 270.175781 226.429688 269.195312 C 228.109375 268.902344 229.601562 268.230469 228.351562 266.953125 C 227.679688 266.265625 227.734375 266.386719 227.867188 266.160156 L 228.808594 266.320312 C 228.125 265.21875 227.238281 264.761719 226.066406 264.816406 C 216.835938 265.273438 207.6875 260.246094 196.238281 257.976562 C 194.855469 257.695312 194.679688 256.847656 193.199219 256.578125 L 179.550781 254.039062 C 178.230469 253.796875 179.480469 254.820312 176.984375 254.644531 C 164.40625 253.769531 167.457031 253.984375 163.894531 253.90625 C 163.789062 253.421875 163.503906 252.992188 163.910156 252.683594 C 164.59375 252.160156 165.292969 251.632812 166.207031 251.632812 C 168.277344 251.632812 170.34375 251.660156 172.347656 252.347656 C 172.761719 252.496094 173.207031 252.5625 173.570312 252.265625 C 174.011719 251.917969 174 251.996094 178.59375 252.535156 C 179.898438 252.695312 179.523438 251.726562 180.664062 251.648438 C 199.582031 250.453125 233.136719 255.933594 239.089844 257.277344 C 256.53125 261.203125 256.046875 261.429688 257.699219 260.53125 C 259.457031 259.5625 260.15625 260.890625 265.101562 260.003906 C 266.378906 259.777344 266.824219 258.835938 268.367188 259.078125 C 277.746094 260.542969 278.484375 260.542969 279.734375 261.269531 C 281.886719 262.503906 283.324219 262.746094 292.796875 265.449219 C 299.367188 267.316406 302 271.078125 304.835938 274.019531 C 306.421875 272.675781 301.4375 268.914062 299.972656 267.757812 C 296.71875 265.179688 294.460938 264.882812 294.339844 264.722656 C 294.195312 264.507812 294.085938 264.265625 293.964844 264.035156 C 294.195312 263.914062 294.410156 263.742188 294.652344 263.6875 C 294.8125 263.648438 296.234375 264.171875 297.296875 264.34375 C 304.21875 265.460938 305.777344 267.355469 307.792969 267.71875 C 311.246094 268.351562 311.648438 265.488281 314.539062 266.105469 C 317.089844 266.644531 323.796875 268.015625 326.871094 268.59375 C 327.773438 268.765625 329.882812 268.429688 330.945312 268.632812 C 332.449219 268.914062 341.4375 271.507812 346.4375 273.941406 C 347.632812 274.515625 348.667969 275.335938 349.675781 276.171875 C 351.046875 277.3125 352.710938 276.800781 353.113281 275.015625 C 353.304688 274.179688 353.425781 274.035156 354.191406 274.046875 C 356.113281 274.085938 358.046875 274.046875 359.914062 274.558594 C 363.179688 275.445312 371.523438 276.464844 371.539062 276.464844 C 374.320312 276.722656 376.738281 276.546875 376.523438 273.792969 C 376.414062 272.382812 375.824219 272.367188 374.414062 270.742188 C 372.640625 268.6875 371 268.148438 368.273438 266.75 C 361.890625 263.484375 359.859375 261.996094 356.300781 261.578125 C 354.527344 261.363281 355.34375 261.027344 353.976562 260.664062 C 352.09375 260.167969 353.222656 260.664062 351.085938 259.722656 C 351.085938 258.246094 350.871094 256.996094 349.566406 256.203125 C 348.9375 255.8125 346.355469 253.3125 343.398438 251.875 C 342.109375 251.246094 342.5 251.6875 337.769531 248.058594 C 338.75 248.058594 358.421875 253.355469 364.5625 257.238281 C 367.53125 259.105469 372.570312 259.804688 376.050781 258.851562 C 377.679688 258.40625 377.488281 255.757812 376.28125 254.75 C 374.558594 253.3125 371.347656 250.9375 370.179688 250.0625 C 371.605469 246.355469 367.84375 246.460938 367.144531 246.085938 C 366.605469 245.789062 367.171875 246.042969 362.949219 243.640625 C 363.03125 242.660156 363.085938 242.496094 363.957031 242.324219 C 365.570312 242 367.210938 241.71875 368.796875 242.511719 C 371.632812 243.921875 370.851562 243.761719 371.550781 244.109375 C 374.9375 245.871094 380.820312 246.152344 381.925781 240.628906 C 382.085938 239.824219 382.140625 239.324219 382.972656 239.421875 C 385.484375 239.714844 383.738281 240.859375 390.765625 242.683594 C 391.089844 242.765625 391.449219 242.804688 391.761719 242.726562 C 393.222656 242.347656 394.929688 242.308594 395.238281 240.214844 C 395.910156 239.460938 395.265625 238.574219 394.808594 237.324219 C 394.5 236.464844 394.621094 236.382812 394.59375 235.011719 C 394.472656 230.027344 392.296875 229.273438 390.847656 226.132812 C 389.984375 224.261719 389.703125 224.128906 388.320312 222.558594 C 390.96875 222.316406 391.761719 222.582031 393.089844 220.878906 C 395.507812 217.746094 377.746094 212.667969 375.902344 210.394531 C 375.636719 210.058594 375.273438 210.074219 374.9375 210.371094 C 374.277344 210.960938 373.753906 211.269531 374.425781 211.996094 C 375.59375 213.257812 377.300781 212.601562 379.8125 214.640625 C 380.175781 214.9375 381.882812 216.484375 381.574219 216.871094 C 381.238281 217.304688 380.511719 217.128906 379.183594 216.75 C 375.042969 215.542969 374.628906 215.339844 374.320312 215.019531 C 372.839844 213.417969 371.320312 211.082031 371.617188 208.929688 C 374.210938 207.546875 375.878906 208.285156 379.839844 208.191406 C 381.695312 208.152344 383.710938 206.472656 381.992188 204.496094 C 381.132812 203.515625 381.226562 203.058594 380.890625 202.253906 C 380.082031 200.304688 379.574219 201.742188 377.152344 201.03125 C 373.539062 199.96875 372.371094 200.144531 370.339844 199.042969 C 368.660156 198.140625 366.902344 197.441406 364.992188 197.199219 C 364.171875 197.09375 363.515625 197.242188 362.976562 197.980469 C 362.347656 198.855469 360.585938 199.082031 360.503906 198.074219 C 360.304688 195.28125 360.34375 194.554688 361.257812 194.21875 C 368.097656 191.757812 370.21875 193.089844 376.722656 194.472656 C 381.695312 195.535156 381.75 194.042969 384.316406 194.660156 C 395.789062 197.429688 402.199219 198.183594 409.898438 203.582031 C 410.449219 203.972656 411.015625 204.496094 412.050781 204.230469 C 412.359375 204.148438 413.246094 203.53125 412.25 202.804688 C 411.835938 202.496094 408.863281 200.558594 407.453125 199.714844 C 405.9375 198.800781 404.738281 197.347656 402.980469 196.863281 C 402.523438 196.746094 401.835938 195.546875 396.289062 193.707031 C 388.28125 191.046875 390.296875 192.324219 386.359375 190.84375 C 385.539062 190.535156 384.773438 190.050781 383.859375 189.984375 C 383.65625 189.972656 383.457031 189.824219 383.292969 189.691406 C 380.445312 187.433594 380.863281 187.742188 380.59375 187.269531 C 384.179688 185.792969 383.605469 185.496094 391.664062 188.480469 C 398.640625 191.058594 401.554688 193.101562 404.257812 190.121094 C 404.875 189.449219 404.914062 189.097656 404.472656 188.265625 C 402.992188 185.511719 401.730469 185.953125 392.96875 180.527344 C 389.488281 178.375 390.199219 176.65625 391.234375 177.261719 C 393.441406 178.550781 395.777344 176.171875 394.273438 174.398438 C 393.183594 173.121094 389.960938 172.757812 390.308594 171.671875 C 390.710938 170.421875 393.992188 173.1875 394.273438 170.339844 C 394.40625 168.957031 393.679688 168.257812 392.417969 167.359375 C 390.09375 165.679688 390.390625 166.710938 390.199219 164.171875 C 390.832031 164.023438 391.355469 164.09375 391.894531 164.375 C 393.613281 165.246094 395.1875 165.53125 396.53125 166.054688 C 399.660156 167.277344 401.40625 167.195312 403.328125 167.0625 C 404.203125 166.996094 404.835938 165.664062 403.746094 164.992188 C 403.261719 164.695312 401.933594 164.09375 401.421875 163.851562 C 402.523438 163.609375 402.683594 163.273438 403.613281 163.757812 C 404.996094 164.480469 404.996094 162.855469 406.566406 163.207031 C 407.28125 163.367188 408.019531 163.378906 408.746094 163.40625 C 409.242188 163.421875 409.65625 163.191406 409.765625 162.65625 C 409.980469 161.527344 411.390625 161.941406 413.648438 162.398438 C 416.09375 165.703125 415.796875 166.160156 416.804688 166.660156 C 420.300781 168.417969 420.449219 169.132812 421.226562 169.425781 C 424.585938 170.703125 428.578125 171.5625 428.898438 171.578125 C 437.566406 171.898438 437.21875 172.074219 438.871094 168.527344 C 438.871094 167.53125 437.445312 166.109375 436.476562 164.953125 C 435.539062 163.835938 434.597656 163.5 434.394531 162.800781 C 433.601562 159.992188 430.335938 157.695312 428.335938 157.871094 C 428.214844 157.882812 427.972656 157.386719 428.765625 156.996094 C 429.878906 156.460938 429.277344 155.265625 430.929688 155.773438 C 434.972656 157.011719 435.066406 157.695312 435.699219 155.679688 C 435.039062 155.089844 431.332031 153.4375 430.148438 153.046875 C 426.617188 151.90625 424.035156 150.023438 422.652344 150.507812 C 421.710938 150.828125 420.957031 150.199219 420.878906 149.097656 C 421.375 148.910156 422.035156 148.949219 422.300781 148.988281 C 429.734375 150.277344 429.839844 151.273438 430.363281 150.425781 C 430.59375 150.050781 430.527344 149.660156 430.214844 149.40625 C 429.71875 149.003906 429.207031 148.597656 428.644531 148.304688 C 425.660156 146.757812 426.050781 145.804688 423.335938 144.703125 C 421.507812 143.964844 413.257812 141.113281 410.652344 140.523438 C 409.253906 140.214844 409.683594 138.535156 411 138.253906 C 413.125 137.796875 413.109375 135.070312 417.023438 135.566406 C 420.261719 135.980469 421.578125 136.53125 422.691406 135.914062 C 424.304688 135.015625 425.097656 135.820312 430.082031 136.652344 C 432.273438 137.015625 435.203125 136.921875 434.515625 134.800781 C 433.898438 132.890625 433.308594 131.183594 432.648438 130.902344 C 431.199219 130.285156 431.035156 129.53125 429.570312 128.96875 C 422.113281 126.105469 420.730469 125.351562 417.667969 124.816406 C 415.625 124.453125 415.460938 125.878906 414.375 125.570312 L 414.550781 122.691406 C 415.636719 122.074219 416.953125 122.316406 417.4375 122.15625 C 418.027344 121.953125 418.246094 121.28125 417.789062 120.917969 C 416.308594 119.722656 416.902344 118.136719 415.746094 117.949219 C 413.257812 117.546875 412.789062 115.371094 410.640625 115.828125 C 409.226562 116.121094 409.402344 115.128906 409.402344 112.183594 C 411.417969 110.503906 416.765625 114.105469 416.242188 111.59375 C 415.878906 109.875 415.34375 108.542969 413.714844 107.953125 C 411.191406 107.023438 408.730469 105.640625 405.679688 105.183594 C 404.445312 104.996094 405.128906 104.121094 401.394531 103.492188 C 398.371094 102.980469 399.003906 102.441406 396.300781 101.53125 C 386.304688 98.128906 386.828125 98.601562 374.414062 94.621094 C 372.613281 94.046875 370.867188 93.292969 368.972656 93.039062 C 367.640625 92.863281 366.390625 92.472656 365.476562 91.398438 C 364.507812 90.257812 363.703125 90.390625 359.242188 89.289062 C 343.898438 85.484375 358.851562 88.023438 360.480469 87.394531 C 357.320312 85.59375 356.542969 85.835938 354.378906 85.097656 C 354.484375 84.035156 362.925781 86.25 363.113281 85.296875 C 363.207031 84.8125 362.683594 84.503906 362.199219 84.382812 C 361.460938 84.183594 352.96875 81.859375 352.105469 81.871094 C 351.664062 81.871094 351.019531 81.710938 350.761719 81.132812 C 357.144531 81.132812 355.386719 81.765625 358.8125 81.910156 C 361.96875 82.046875 361.984375 82.382812 364.5625 82.515625 C 364.886719 81.265625 363.957031 81.75 360.238281 80.5 C 356.285156 79.15625 350.980469 78.351562 349.929688 78.09375 C 331.359375 73.539062 332.933594 72.492188 331.546875 72.894531 C 330.40625 73.230469 330.246094 71.242188 331.480469 71.375 C 333.027344 71.539062 333.671875 70.558594 334.570312 69.292969 C 335.769531 67.613281 335.257812 66.296875 334.855469 64.148438 C 337.164062 64.445312 337.285156 65.007812 339.007812 65.25 C 347.242188 66.433594 347.847656 66.175781 348.546875 65.707031 C 349.445312 65.117188 351.675781 65.882812 352.738281 64.269531 C 371.46875 68.5 374.667969 70.289062 374.949219 68.59375 C 375.125 67.546875 372.734375 66.472656 371.738281 66.242188 C 368.246094 65.425781 367.640625 64.457031 364.121094 64.578125 C 361.109375 64.671875 361.136719 64.539062 354.097656 62.789062 C 354.003906 62.765625 353.921875 62.65625 353.828125 62.574219 C 354.003906 62.359375 354.148438 62.199219 354.257812 62.023438 C 354.875 60.988281 354.285156 59.484375 353.113281 59.296875 C 351.851562 59.09375 350.589844 58.894531 349.3125 58.90625 C 345.429688 58.921875 341.625 57.589844 340.136719 56.597656 C 339.679688 56.300781 337.300781 55.761719 336.050781 55.832031 C 331.078125 56.097656 329.414062 55.816406 327.570312 54.714844 C 324.453125 52.859375 322.652344 53.222656 316.339844 52.941406 C 310.050781 52.660156 311.230469 51.921875 309.472656 51.691406 C 298.171875 50.265625 296.828125 50.265625 293.199219 49.367188 C 291.0625 48.84375 291.222656 45 286.777344 48.320312 C 285.769531 49.070312 285.015625 49.191406 281.457031 49.070312 C 278.753906 48.976562 279.871094 48.519531 276.578125 48.480469 C 275.703125 48.46875 273.324219 48.105469 272.117188 48.199219 C 265.15625 48.734375 259.511719 46.613281 257.617188 47.125 C 255.683594 47.648438 254.742188 47.136719 250.804688 47.191406 C 237.839844 47.3125 240.820312 48.320312 236.386719 46.007812 Z M 68.625 125.785156 C 68.585938 125.351562 68.625 125.742188 72.121094 125.179688 C 73.691406 124.921875 75.332031 124.882812 76.714844 123.902344 C 76.730469 123.890625 80.503906 123.296875 80.667969 123.363281 C 81.929688 123.863281 84.347656 122.949219 86.710938 122.949219 C 86.214844 123.390625 85.679688 123.621094 85.179688 123.929688 C 84.144531 124.585938 83.351562 124.574219 82.117188 124.722656 C 72.269531 125.824219 72.457031 125.835938 72.253906 125.730469 C 71.449219 125.339844 71.019531 125.59375 68.625 125.785156 Z M 68.625 125.785156 " fill-opacity="1" fill-rule="nonzero"/></g></svg>