<svg xmlns="http://www.w3.org/2000/svg" xmlns:xlink="http://www.w3.org/1999/xlink" width="600" zoomAndPan="magnify" viewBox="0 0 450 449.999984" height="600" preserveAspectRatio="xMidYMid meet" version="1.0"><defs><clipPath id="176d20347f"><path d="M 434 167 L 449.925781 167 L 449.925781 187 L 434 187 Z M 434 167 " clip-rule="nonzero"/></clipPath></defs><path fill="#00bf63" d="M 378.84375 254.457031 C 384.078125 235.089844 357.75 224.289062 358.648438 222.628906 C 369.019531 203.46875 369.511719 225.03125 381.253906 222.558594 C 394.71875 219.714844 388.421875 234.46875 402.105469 220.21875 C 408.15625 213.925781 412.863281 203.199219 408.167969 194.222656 C 391.722656 162.769531 385.921875 205.523438 370.421875 207.398438 C 347.847656 210.121094 342.316406 196.316406 362.902344 176.152344 C 372.695312 166.5625 368.820312 159.429688 369.871094 147.507812 C 372.085938 122.480469 340.058594 132.898438 338.605469 153.875 C 309.519531 155.675781 338.78125 120.949219 306.40625 120.851562 C 306.363281 116.792969 309.4375 111.597656 306.609375 108.695312 C 304.742188 106.773438 296.59375 105.566406 294.894531 104.050781 C 278.101562 126.058594 276.503906 97.109375 283.109375 82.417969 C 292.441406 61.660156 326.886719 95.214844 323.441406 72.824219 C 309.519531 -17.617188 255.574219 16.269531 269.140625 87.175781 C 258.503906 88.859375 248.023438 92.742188 238.546875 98.398438 C 228.285156 89.636719 233.144531 73.902344 224.78125 64.136719 C 212.933594 50.304688 203.121094 75.882812 209.085938 91.34375 C 196.75 92.199219 191.917969 81.441406 180.667969 86.117188 C 167.039062 91.78125 170.757812 101.117188 161.367188 107.140625 C 168.019531 102.867188 131.5625 111.292969 140.546875 111.542969 C 121.78125 111.027344 127.96875 114.441406 108.800781 101.703125 C 99.835938 95.742188 104.835938 83.074219 91.207031 80 C 69.898438 75.195312 53.601562 112.285156 63.773438 129.71875 C 75.867188 150.449219 103.488281 137.558594 106.0625 167.789062 C 100.546875 169.660156 96.617188 175.832031 88.875 176.617188 C 99.234375 217.988281 76.453125 199.949219 65.699219 229.269531 C 51.816406 267.113281 94.253906 255.957031 113.359375 258.011719 C 150.480469 262.011719 144.082031 273.230469 131.710938 298.769531 C 126.589844 309.34375 110.402344 309.480469 118.953125 325.640625 C 126.292969 339.488281 144.324219 335.039062 147.339844 321.515625 C 188.941406 326.777344 86.125 397.726562 177.976562 403.011719 C 194.058594 403.941406 185.539062 371.25 190.371094 355.617188 C 204.226562 356.589844 212.878906 373.332031 224.882812 371.921875 C 241.335938 369.992188 225.824219 345.75 253.265625 351.316406 C 284.042969 357.550781 272.304688 438.710938 304.644531 436.484375 C 370.648438 431.953125 301.59375 373.21875 269.894531 355.777344 C 267.605469 328.265625 289.765625 344.785156 309.96875 347.542969 C 323.042969 349.335938 321.636719 323.238281 313.769531 311.816406 C 324.625 307.007812 330.226562 302.324219 338.152344 296.421875 C 347.269531 310.898438 399.261719 354.335938 416.800781 334.671875 C 440.683594 307.910156 358.148438 290.820312 349.980469 284.171875 C 348.695312 277.957031 351.527344 276.710938 353.921875 271.875 C 353.921875 271.875 375.921875 265.285156 378.84375 254.457031 " fill-opacity="1" fill-rule="nonzero"/><path fill="#00bf63" d="M 384.527344 93.304688 C 384.527344 105.777344 374.417969 115.886719 361.949219 115.886719 C 349.476562 115.886719 339.367188 105.777344 339.367188 93.304688 C 339.367188 80.832031 349.476562 70.722656 361.949219 70.722656 C 374.417969 70.722656 384.527344 80.832031 384.527344 93.304688 " fill-opacity="1" fill-rule="nonzero"/><path fill="#00bf63" d="M 102.996094 292.035156 C 102.996094 304.511719 92.886719 314.621094 80.414062 314.621094 C 67.941406 314.621094 57.832031 304.511719 57.832031 292.035156 C 57.832031 279.5625 67.941406 269.453125 80.414062 269.453125 C 92.886719 269.453125 102.996094 279.5625 102.996094 292.035156 " fill-opacity="1" fill-rule="nonzero"/><path fill="#00bf63" d="M 57.832031 230.800781 C 57.832031 241.457031 47.722656 250.097656 35.25 250.097656 C 22.769531 250.097656 12.660156 241.457031 12.660156 230.800781 C 12.660156 220.144531 22.769531 211.511719 35.25 211.511719 C 47.722656 211.511719 57.832031 220.144531 57.832031 230.800781 " fill-opacity="1" fill-rule="nonzero"/><path fill="#00bf63" d="M 44.277344 192.671875 C 44.277344 198.09375 39.136719 202.476562 32.796875 202.476562 C 26.453125 202.476562 21.304688 198.09375 21.304688 192.671875 C 21.304688 187.253906 26.453125 182.859375 32.796875 182.859375 C 39.136719 182.859375 44.277344 187.253906 44.277344 192.671875 " fill-opacity="1" fill-rule="nonzero"/><path fill="#00bf63" d="M 161.152344 84.273438 C 161.152344 89.691406 156.007812 94.082031 149.664062 94.082031 C 143.324219 94.082031 138.183594 89.691406 138.183594 84.273438 C 138.183594 78.851562 143.324219 74.464844 149.664062 74.464844 C 156.007812 74.464844 161.152344 78.851562 161.152344 84.273438 " fill-opacity="1" fill-rule="nonzero"/><path fill="#00bf63" d="M 435.71875 177.617188 C 435.71875 188.425781 428.976562 197.1875 420.660156 197.1875 C 412.347656 197.1875 405.605469 188.425781 405.605469 177.617188 C 405.605469 166.808594 412.347656 158.042969 420.660156 158.042969 C 428.976562 158.042969 435.71875 166.808594 435.71875 177.617188 " fill-opacity="1" fill-rule="nonzero"/><path fill="#00bf63" d="M 437.195312 235.582031 C 437.195312 240.964844 433.835938 245.328125 429.691406 245.328125 C 425.554688 245.328125 422.195312 240.964844 422.195312 235.582031 C 422.195312 230.199219 425.554688 225.832031 429.691406 225.832031 C 433.835938 225.832031 437.195312 230.199219 437.195312 235.582031 " fill-opacity="1" fill-rule="nonzero"/><g clip-path="url(#176d20347f)"><path fill="#00bf63" d="M 449.238281 176.902344 C 449.238281 182.285156 445.878906 186.652344 441.738281 186.652344 C 437.597656 186.652344 434.242188 182.285156 434.242188 176.902344 C 434.242188 171.519531 437.597656 167.15625 441.738281 167.15625 C 445.878906 167.15625 449.238281 171.519531 449.238281 176.902344 " fill-opacity="1" fill-rule="nonzero"/></g><path fill="#00bf63" d="M 364.929688 63.195312 C 364.929688 68.585938 361.570312 72.945312 357.425781 72.945312 C 353.289062 72.945312 349.929688 68.585938 349.929688 63.195312 C 349.929688 57.8125 353.289062 53.453125 357.425781 53.453125 C 361.570312 53.453125 364.929688 57.8125 364.929688 63.195312 " fill-opacity="1" fill-rule="nonzero"/><path fill="#00bf63" d="M 93.929688 162.5625 C 93.929688 167.945312 90.578125 172.308594 86.433594 172.308594 C 82.289062 172.308594 78.9375 167.945312 78.9375 162.5625 C 78.9375 157.175781 82.289062 152.8125 86.433594 152.8125 C 90.578125 152.8125 93.929688 157.175781 93.929688 162.5625 " fill-opacity="1" fill-rule="nonzero"/><path fill="#00bf63" d="M 194.828125 403.441406 C 194.828125 408.832031 191.476562 413.191406 187.332031 413.191406 C 183.195312 413.191406 179.835938 408.832031 179.835938 403.441406 C 179.835938 398.058594 183.195312 393.699219 187.332031 393.699219 C 191.476562 393.699219 194.828125 398.058594 194.828125 403.441406 " fill-opacity="1" fill-rule="nonzero"/></svg>